<?xml version="1.0" encoding="UTF-8"?><svg id="Ebene_2" xmlns="http://www.w3.org/2000/svg" viewBox="0 0 257.02 238.88"><defs><style>.cls-1{fill:#9be4c5;}.cls-2{fill:#092618;}</style></defs><g id="Ebene_2-2"><g id="Ebene_1-2"><path class="cls-1" d="m62.93.31c-15.71,1.68-31.67,10.06-42.29,22.26C9.1,35.79,2.7,51.29.36,71.37c-2.08,18.25,5.08,43.46,18,62.88l3.61,5.49h29.59l11.44-25.21c6.25-13.83,11.95-25.72,12.61-26.43,1.63-1.63,4.73-1.68,6.3-.05.71.66,6.1,13.47,13.78,32.63,6.91,17.33,12.66,31.57,12.71,31.62.05.1,4.32-7.47,9.51-16.72,5.13-9.3,9.86-17.54,10.52-18.3.97-1.17,1.63-1.42,3.35-1.42,2.75,0,3.2.51,8.18,8.79,2.13,3.61,4.01,6.46,4.12,6.3.1-.1,3.86-17.64,8.34-39.04,4.47-21.35,8.39-39.6,8.69-40.46,1.07-3.41,4.88-4.27,7.52-1.83l1.53,1.42,7.01,44.32,6.97,44.38h51.08l3.46-5.23c12.76-19.26,19.93-44.12,18.04-62.78-2.95-29.43-17.59-53.02-40.06-64.5-10.11-5.18-17.74-6.96-29.43-6.96-14.38-.05-26.02,3.46-38.02,11.39-4.63,3.1-12.45,10.42-16.27,15.2-3.15,4.01-3.25,4.12-5.29,4.12-1.37,0-1.98-.46-4.07-3.15-9.61-12.5-19.88-20.08-33.34-24.55C82.09.56,71.37-.61,62.93.31Z"/><path class="cls-2" d="m164.64,80.47c-.25,2.54-14.03,66.33-14.44,66.9-1.58,1.98-4.32,2.69-6.4,1.53-.51-.25-3.3-4.47-6.2-9.35-2.9-4.93-5.44-8.95-5.64-8.95-.15,0-4.83,8.08-10.32,18-5.49,9.91-10.47,18.4-11.03,18.91-1.32,1.22-4.57,1.22-5.95,0-.56-.51-6.2-13.98-13.32-31.72-6.76-16.98-12.45-31.01-12.66-31.26-.15-.2-4.78,9.35-10.17,21.25-5.44,11.9-10.32,22.01-10.83,22.52-.87.76-2.54.86-14.13,1.02l-13.16.15.87,1.27c.51.71,21.86,20.28,47.43,43.51s47.12,42.8,47.83,43.46l1.27,1.17,46.26-41.17c25.42-22.67,47.68-42.75,49.51-44.63l3.3-3.41-24.45-.25c-23.08-.25-24.55-.3-25.57-1.22-.56-.51-1.17-1.32-1.32-1.78-.1-.46-2.54-15.35-5.34-33.09-4.68-29.69-5.44-34.11-5.54-32.84,0,0,0-.02,0-.02Z"/></g></g></svg>